# xmcd
#
# Track frame offsets:
#	150
#	4480
#	25889
#	46744
#	69489
#	85412
#	99917
#	114544
#	138982
#	152653
#	173794
#
# Disc length: 2386 seconds
#
# Revision: 2
# Processed by: cddbd v1.5.2PL0 Copyright (c) Steve Scherf et al.
# Submitted via: dBpowerAMP V4.0
#
DISCID=8509500b
DTITLE=Kemp Harris - Edenton
DYEAR=2006
DGENRE=Blues
TTITLE0=Sometimes
TTITLE1=Sweet Weepin' Jesus
TTITLE2=Day After Day
TTITLE3=Tryin' Times
TTITLE4=Ruthie's
TTITLE5=Didn't It Rain
TTITLE6=Mother Earth
TTITLE7=Miles Between Us
TTITLE8=Night Life
TTITLE9=Edenton
TTITLE10=Sometimes (Reprise)
EXTD=
EXTT0=
EXTT1=
EXTT2=
EXTT3=
EXTT4=
EXTT5=
EXTT6=
EXTT7=
EXTT8=
EXTT9=
EXTT10=
PLAYORDER=
